<?xml version="1.0" encoding="utf-8"?>
<!-- Generator: Adobe Illustrator 19.0.0, SVG Export Plug-In . SVG Version: 6.00 Build 0)  -->
<svg version="1.1" id="Layer_1" xmlns="http://www.w3.org/2000/svg" xmlns:xlink="http://www.w3.org/1999/xlink" x="0px" y="0px"
	 width="600px" height="600px" viewBox="0 0 600 600" enable-background="new 0 0 600 600" xml:space="preserve">
<path id="color_x5F_3_7_" fill="#ED1C25" d="M284.501,442.612c-2.158-0.06-4.177,0.843-5.84,2.42
	c-3.728,3.536-10.24,5.683-17.38,5.588c-0.125-1.416-0.326-2.84-0.587-4.268c4.524-1.176,9.047-2.351,13.571-3.527
	c4.662-1.212,3.329-8.624-1.37-7.403c-4.717,1.226-9.434,2.452-14.151,3.678c-0.851-2.511-1.775-4.884-2.78-7.105
	c3.777-2.77,7.555-5.54,11.332-8.31c3.906-2.864-1.025-8.556-4.919-5.701c-3.315,2.431-6.63,4.862-9.945,7.293
	c-1.369-2.255-2.828-4.336-4.388-6.216c4.997-5.185,11.169-8.315,16.342-8.456c2.291-0.062,4.356-0.854,5.838-2.423
	c3.725-3.943,2.356-11.283-3.056-16.396c-5.412-5.113-12.819-6.062-16.544-2.119c-1.482,1.569-2.155,3.676-2.087,5.967
	c0.153,5.145-2.594,11.444-7.438,16.71c-1.685-1.296-3.451-2.429-5.279-3.428c2.674-5.317,5.349-10.634,8.023-15.952
	c2.177-4.328-4.932-6.831-7.084-2.554c-2.602,5.173-5.204,10.347-7.807,15.52c-1.746-0.577-3.546-1.037-5.387-1.404
	c0.642-5.2,1.282-10.303,1.953-17.508c0.45-4.832-7.053-5.471-7.503-0.647c-0.659,7.08-1.289,12.13-1.92,17.237
	c-3.736-0.197-7.62-0.049-11.643,0.442l-0.446-2.413c-1.334-7.212-0.22-14.188,2.763-18.516c1.301-1.886,1.88-4.021,1.487-6.144
	c-0.987-5.333-7.722-8.558-15.043-7.203c-0.065,0.012-0.127,0.03-0.192,0.043c-0.065,0.011-0.129,0.017-0.194,0.029
	c-7.321,1.355-12.456,6.776-11.469,12.109c0.393,2.123,1.697,3.909,3.587,5.205c4.335,2.973,7.871,9.089,9.206,16.301l0.458,2.473
	c-2.259,0.626-4.447,1.405-6.567,2.302c-2.298-4.249-4.597-8.498-6.895-12.746c-2.296-4.244-9.089-0.99-6.774,3.289
	c2.323,4.294,4.646,8.589,6.97,12.884c-1.92,1.166-3.763,2.44-5.5,3.844l-1.505-1.468c-5.25-5.122-8.363-11.463-8.422-16.719
	c-0.026-2.291-0.784-4.369-2.329-5.877c-3.882-3.787-11.244-2.538-16.443,2.792c-5.199,5.329-6.267,12.72-2.385,16.507
	c1.545,1.508,3.641,2.214,5.932,2.183c5.256-0.072,11.672,2.885,16.922,8.007l1.361,1.328c-2.418,2.903-4.487,6.122-6.201,9.592
	c-4.286-1.769-8.573-3.537-12.859-5.306c-4.492-1.854-7.022,5.24-2.554,7.084c4.202,1.734,8.404,3.468,12.606,5.202
	c-0.909,2.856-1.612,5.834-2.033,8.953l-1.664-0.046c-7.331-0.203-13.921-2.75-17.529-6.573c-1.573-1.667-3.539-2.679-5.697-2.739
	c-5.422-0.15-9.983,5.762-10.189,13.204c-0.206,7.443,4.022,13.598,9.444,13.747c2.158,0.06,4.177-0.843,5.84-2.42
	c3.814-3.617,10.534-5.797,17.865-5.595l1.449,0.04c0.087,2.644,0.359,5.361,0.803,8.136c-5.794,0.401-11.588,0.803-17.382,1.204
	c-4.825,0.334-3.416,7.735,1.37,7.403c5.874-0.407,11.748-0.814,17.622-1.221c0.423,1.497,0.896,2.987,1.445,4.459
	c-4.355,1.914-8.709,3.827-13.064,5.741c-4.434,1.948-1.15,8.725,3.289,6.774c4.298-1.889,8.595-3.777,12.893-5.666
	c1.035,1.912,2.178,3.771,3.464,5.538c-4.834,4.67-10.597,7.479-15.479,7.612c-2.291,0.062-4.356,0.854-5.839,2.423
	c-3.725,3.943-2.356,11.284,3.056,16.396c5.412,5.113,12.819,6.062,16.544,2.119c1.482-1.569,2.155-3.676,2.087-5.967
	c-0.14-4.706,2.149-10.375,6.243-15.339c2.423,2.108,5.138,3.951,8.138,5.48l-5.396,9.935c-2.292,4.221,3.889,8.527,6.203,4.266
	c2.067-3.806,4.134-7.611,6.201-11.417c1.617,0.479,3.301,0.873,5.055,1.176c-0.279,6.123-0.558,12.246-0.837,18.369
	c-0.22,4.835,7.282,5.493,7.503,0.647c0.278-6.102,0.556-12.205,0.834-18.308c3.443,0.074,7.096-0.155,10.99-0.763
	c1.299,7.168,0.186,14.091-2.781,18.394c-1.301,1.886-1.88,4.021-1.487,6.144c0.987,5.333,7.722,8.558,15.043,7.204
	c0.065-0.012,0.127-0.03,0.191-0.043c0.065-0.011,0.129-0.016,0.194-0.029c7.321-1.355,12.456-6.776,11.469-12.109
	c-0.393-2.123-1.698-3.909-3.587-5.205c-4.335-2.973-7.871-9.089-9.206-16.301l-0.059-0.316c2.826-0.925,5.578-2.096,8.235-3.465
	c2.207,4.486,4.413,8.972,6.62,13.458c2.135,4.341,8.92,1.073,6.774-3.289c-2.303-4.683-4.607-9.365-6.91-14.048
	c1.488-1.028,2.931-2.124,4.32-3.283l0.448,0.437c5.249,5.122,8.364,11.463,8.422,16.719c0.025,2.291,0.783,4.369,2.329,5.877
	c3.882,3.788,11.244,2.538,16.443-2.792c5.199-5.329,6.267-12.72,2.385-16.507c-1.545-1.507-3.641-2.214-5.932-2.183
	c-5.256,0.071-11.672-2.885-16.922-8.007l-0.309-0.301c0.93-1.08,1.805-2.202,2.648-3.346c2.964,2.265,5.929,4.529,8.893,6.794
	c3.858,2.948,8.11-3.267,4.266-6.203c-3.038-2.321-6.075-4.641-9.113-6.962c1.237-2.285,2.291-4.658,3.161-7.1
	c4.175,1.437,8.35,2.874,12.525,4.311c4.587,1.579,7.14-5.505,2.553-7.084c-4.374-1.505-8.748-3.011-13.122-4.516
	c0.144-0.785,0.302-1.566,0.405-2.361c7.102,0.316,13.451,2.812,16.965,6.535c1.573,1.667,3.539,2.679,5.697,2.739
	c5.421,0.15,9.983-5.762,10.189-13.204C294.151,448.917,289.923,442.762,284.501,442.612z M206.731,487.49
	c-24.332,1.663-36.947-22.003-30.893-43.717c2.348-8.422,15.108-3.778,12.771,4.604c-3.053,10.951,2.096,26.693,15.652,25.766
	C212.888,473.553,215.43,486.895,206.731,487.49z M211.369,442.213c-4.497,0.832-8.818-2.139-9.65-6.636
	c-0.832-4.497,2.139-8.818,6.636-9.65c4.497-0.832,8.818,2.139,9.65,6.636C218.837,437.06,215.866,441.381,211.369,442.213z
	 M229.178,473.638c-8.602,1.592-11.057-11.758-2.47-13.347C235.311,458.699,237.766,472.048,229.178,473.638z M236.951,446.678
	c-8.602,1.592-11.057-11.757-2.47-13.347C243.083,431.74,245.539,445.089,236.951,446.678z M564.499,472.408
	c-1.973-0.876-4.184-0.809-6.321,0.017c-4.903,1.895-11.947,1.356-18.651-1.62l-0.394-0.175c0.496-1.336,0.926-2.692,1.319-4.058
	c3.567,1.092,7.134,2.184,10.701,3.276c4.643,1.421,6.467-5.884,1.842-7.3c-3.655-1.119-7.31-2.238-10.966-3.357
	c0.365-2.573,0.528-5.164,0.493-7.756c4.414-0.105,8.828-0.21,13.242-0.315c4.85-0.116,4.779-7.645-0.07-7.53
	c-4.624,0.11-9.249,0.22-13.873,0.33c-0.137-0.786-0.262-1.573-0.441-2.354c6.768-2.175,13.589-2.043,18.179,0.225
	c2.054,1.015,4.25,1.281,6.294,0.586c5.135-1.745,7.356-8.875,4.96-15.924c-2.396-7.049-8.501-11.349-13.636-9.604
	c-2.044,0.695-3.623,2.243-4.633,4.3c-2.266,4.613-7.624,8.89-14.351,11.285c-0.609-1.284-1.293-2.549-2.035-3.797
	c3.832-2.676,7.664-5.352,11.497-8.028c3.95-2.758,0.121-9.244-3.859-6.464c-3.996,2.79-7.992,5.581-11.988,8.371
	c-1.671-2.058-3.364-3.962-5.078-5.694c2.578-3.911,5.156-7.822,7.734-11.733c2.666-4.044-3.938-7.665-6.595-3.634
	c-2.263,3.432-4.525,6.865-6.787,10.297c-2.068-1.638-4.16-3.081-6.277-4.302c2.881-6.599,7.579-11.681,12.38-13.613
	c2.126-0.855,3.787-2.316,4.631-4.302c2.12-4.992-1.716-11.398-8.569-14.309c-6.853-2.911-14.127-1.224-16.247,3.768
	c-0.844,1.987-0.742,4.196,0.119,6.32c1.933,4.771,1.548,11.631-1.161,18.253c-2.031-0.629-4.08-1.077-6.142-1.378
	c0.658-5.915,1.315-11.831,1.973-17.746c0.535-4.815-7-4.689-7.53,0.07c-0.64,5.755-1.28,11.511-1.92,17.266
	c-1.838,0.066-3.685,0.261-5.539,0.558c-1.207-5.099-2.382-10.106-4.259-17.094c-1.259-4.687-8.516-2.676-7.259,2.003
	c1.845,6.867,3.011,11.82,4.196,16.828c-3.571,1.115-7.161,2.605-10.762,4.465l-1.258-2.107c-3.76-6.297-5.142-13.225-3.85-18.321
	c0.563-2.221,0.364-4.424-0.743-6.277c-2.78-4.657-10.216-5.338-16.609-1.521c-0.057,0.034-0.108,0.072-0.165,0.107
	c-0.057,0.033-0.115,0.06-0.172,0.094c-6.393,3.817-9.321,10.686-6.541,15.343c1.107,1.853,2.951,3.074,5.174,3.632
	c5.098,1.28,10.541,5.783,14.301,12.081l1.289,2.16c-1.9,1.373-3.68,2.864-5.356,4.443c-3.633-3.184-7.266-6.368-10.898-9.552
	c-3.629-3.18-8.866,2.234-5.207,5.44c3.672,3.218,7.344,6.436,11.016,9.655c-1.394,1.761-2.679,3.597-3.819,5.517l-1.921-0.853
	c-6.703-2.976-11.829-7.838-13.712-12.745c-0.821-2.139-2.254-3.824-4.228-4.7c-4.957-2.201-11.424,1.532-14.445,8.337
	c-3.021,6.805-1.451,14.106,3.506,16.306c1.973,0.876,4.184,0.809,6.321-0.017c4.903-1.895,11.947-1.355,18.65,1.62l1.738,0.771
	c-1.257,3.562-2.077,7.3-2.477,11.15c-4.634-0.167-9.268-0.334-13.902-0.501c-4.856-0.175-4.76,7.355,0.07,7.53
	c4.543,0.164,9.085,0.328,13.628,0.492c0.142,2.993,0.518,6.03,1.208,9.101l-1.577,0.536c-6.944,2.36-14.008,2.264-18.721-0.065
	c-2.054-1.015-4.25-1.281-6.294-0.586c-5.135,1.745-7.356,8.875-4.96,15.924c2.396,7.049,8.501,11.349,13.637,9.604
	c2.044-0.695,3.623-2.243,4.633-4.3c2.317-4.718,7.859-9.099,14.803-11.46l1.373-0.467c1.001,2.449,2.202,4.901,3.583,7.348
	c-5.293,2.392-10.585,4.784-15.878,7.176c-4.407,1.992-0.512,8.44,3.86,6.464c5.365-2.425,10.731-4.85,16.097-7.275
	c0.918,1.256,1.88,2.489,2.906,3.678c-3.417,3.309-6.834,6.618-10.251,9.927c-3.479,3.369,1.957,8.58,5.44,5.207
	c3.372-3.266,6.745-6.531,10.117-9.797c1.635,1.433,3.353,2.778,5.174,3.987c-2.908,6.059-7.334,10.699-11.864,12.521
	c-2.126,0.855-3.787,2.316-4.631,4.303c-2.12,4.992,1.716,11.398,8.569,14.309c6.853,2.911,14.127,1.224,16.248-3.768
	c0.844-1.987,0.742-4.196-0.119-6.32c-1.768-4.363-1.595-10.474,0.517-16.552c3.005,1.134,6.192,1.917,9.536,2.307l-1.603,11.192
	c-0.681,4.755,6.612,6.641,7.3,1.842c0.614-4.287,1.228-8.574,1.842-12.861c1.682-0.114,3.399-0.33,5.148-0.656
	c1.868,5.838,3.737,11.676,5.605,17.514c1.475,4.609,8.738,2.617,7.259-2.003c-1.862-5.818-3.725-11.636-5.587-17.455
	c3.253-1.128,6.599-2.614,10.038-4.539c3.712,6.268,5.076,13.146,3.791,18.212c-0.563,2.221-0.364,4.424,0.743,6.277
	c2.78,4.657,10.217,5.338,16.609,1.521c0.057-0.034,0.109-0.072,0.165-0.107c0.057-0.033,0.115-0.06,0.172-0.094
	c6.393-3.817,9.321-10.686,6.541-15.343c-1.107-1.854-2.951-3.074-5.174-3.632c-5.098-1.28-10.542-5.783-14.301-12.081l-0.165-0.276
	c2.328-1.85,4.5-3.905,6.515-6.113c3.629,3.438,7.259,6.877,10.888,10.315c3.512,3.327,8.736-2.097,5.207-5.44
	c-3.789-3.589-7.577-7.178-11.365-10.767c1.037-1.482,2.009-3.01,2.908-4.581l0.571,0.254c6.703,2.976,11.829,7.838,13.712,12.745
	c0.821,2.139,2.254,3.824,4.227,4.699c4.957,2.201,11.425-1.532,14.445-8.337C571.026,481.909,569.456,474.608,564.499,472.408z
	 M479.982,427.695c3.927-2.345,9.011-1.062,11.356,2.865c2.345,3.927,1.062,9.011-2.865,11.356
	c-3.927,2.345-9.011,1.062-11.356-2.865C474.772,435.124,476.055,430.04,479.982,427.695z M499.874,485.978
	c-22.234,10.024-42.294-7.776-44.171-30.24c-0.728-8.713,12.85-8.798,13.575-0.126c0.947,11.329,11.251,24.297,23.638,18.712
	C500.799,470.77,507.823,482.395,499.874,485.978z M507.052,425.549c7.511-4.485,14.457,7.177,6.958,11.654
	C506.499,441.688,499.553,430.027,507.052,425.549z M516.102,465.183c-7.511,4.485-14.457-7.177-6.958-11.654
	C516.655,449.044,523.601,460.706,516.102,465.183z M75.535,485.068v9.235h24.971v38.883H37.108v-46.864
	c0-9.197,4.142-20.562,12.428-34.094c8.285-13.529,12.429-22.993,12.429-28.392c0-3.573-1.369-6.574-4.105-9.008
	c-2.89-2.432-6.043-3.649-9.464-3.649c-2.28,0-4.104,0.267-5.473,0.799l-6.271-34.664c4.561-1.14,9.236-1.711,14.025-1.711
	c14.29,0,26.149,4.486,35.576,13.456c9.653,8.893,14.481,20.334,14.481,34.32c0,9.579-4.219,21.135-12.657,34.664
	C79.714,471.652,75.535,480.66,75.535,485.068z M359.684,485.068v9.235h24.97v38.883h-63.397v-46.864
	c0-9.197,4.141-20.562,12.429-34.094c8.285-13.529,12.429-22.993,12.429-28.392c0-3.573-1.369-6.574-4.106-9.008
	c-2.89-2.432-6.044-3.649-9.463-3.649c-2.282,0-4.106,0.267-5.474,0.799l-6.27-34.664c4.561-1.14,9.234-1.711,14.024-1.711
	c14.291,0,26.148,4.486,35.576,13.456c9.654,8.893,14.482,20.334,14.482,34.32c0,9.579-4.22,21.135-12.659,34.664
	C363.863,471.652,359.684,480.66,359.684,485.068z"/>
<path id="color_x5F_2_8_" fill="#0071A1" d="M585.209,243.942H10.902L33.44,364.115c0,0,176.874,0.898,180.343,0.898
	c11.882,0,22.224-3.812,30.745-11.334c0.171-0.151,0.331-0.311,0.499-0.464c7.703,7.716,17.547,11.798,28.554,11.798
	c5.826,0,16.361-0.898,16.361-0.898h295.267v-54.473h-9.803l9.803-14.01V243.942z M95.149,341.299H76.543l-4.333-25.791
	c-0.223-1.331-2.137-1.329-2.358,0.002l-4.281,25.788H46.964L30.539,253.72H54.6l5.518,49.276l9.743-44.018
	c0.276-1.249,2.056-1.25,2.334-0.001l9.802,44.02l5.454-49.276h24.124L95.149,341.299z M162.325,275.598h-21.879v10.972h21.879
	l-21.879,21.879v10.971h21.879v21.879h-43.757V253.72h43.757V275.598z M235.02,296.194c4.662,7.87,6.994,14.479,6.994,19.826
	c0,7.742-2.759,14.051-8.277,18.927c-5.476,4.834-12.127,7.25-19.954,7.25c-2.309,0-4.834-0.299-7.571-0.898l3.272-19.505
	c0.77,0.299,10.054,1.492,10.843-6.416c0.242-2.426-2.353-7.677-7.057-15.72c-4.706-8.041-7.058-14.757-7.058-20.147
	c0-7.869,2.695-14.307,8.084-19.312c5.432-5.047,12.126-7.571,20.082-7.571c2.695,0,5.326,0.32,7.892,0.962l-3.529,19.505
	c-4.629-1.794-10.714,1.449-10.714,6.673C228.026,282.849,230.357,288.324,235.02,296.194z M298.218,316.662
	c0,6.973-2.374,12.982-7.122,18.029c-4.748,5.005-10.587,7.506-17.516,7.506c-6.929,0-12.768-2.501-17.516-7.506
	c-4.748-5.047-7.121-11.057-7.121-18.029V253.72h21.879v62.942c0,1.839,0.918,2.758,2.758,2.758c1.796,0,2.695-0.919,2.695-2.758
	V253.72h21.943V316.662z M355.513,341.299h-21.942l-2.972-17.578c-0.261-1.546-2.54-1.351-2.535,0.217l0.052,17.361h-21.878V253.72
	h21.878c7.529,0,13.966,2.694,19.313,8.084c5.391,5.347,8.084,11.763,8.084,19.249c0,9.025-3.7,16.34-11.099,21.943L355.513,341.299
	z M404.789,341.299h-26.305l-17.517-87.579h24.061l5.333,48.57c0.167,1.517,2.373,1.516,2.538-0.001l5.281-48.569h24.124
	L404.789,341.299z M450.728,341.299H428.85V253.72h21.878V341.299z M501.095,341.299H474.79l-17.517-87.579h24.061l5.333,48.57
	c0.167,1.517,2.373,1.516,2.538-0.001l5.281-48.569h24.124L501.095,341.299z M568.912,275.598h-21.88v10.972h21.88l-21.88,21.879
	v10.971h21.88v21.879h-43.758V253.72h43.758V275.598z M336.929,281.033c0,4.733-4.156,9.015-8.912,9.015c0-5.975,0-11.951,0-17.926
	C332.751,272.121,336.929,276.299,336.929,281.033z"/>
<path id="color_x5F_1_9_" fill="#05BDCD" d="M19.017,124.891c-12.44,0-19.291-4.507-19.291-17.487
	c0-23.978,16.947-46.873,61.477-46.873c7.391,0,28.665,3.064,46.333,3.064c8.293,0,15.864-0.721,20.732-2.704
	c-2.523,7.571-2.704,23.256-17.127,23.256c-9.555,0-21.273-2.523-33.352-4.687L52.909,195.563H26.949l25.6-119.167
	c-20.192,0-36.056,5.769-36.056,36.237C16.493,121.827,18.836,123.269,19.017,124.891z M599.726,116.959
	c0,6.309-4.689,14.062-13.521,14.062c-10.096,0-5.048-11.899-10.458-11.899c-5.408,0-8.293,1.984-12.439,5.769l-14.965,70.671
	h-25.96l4.258-20.084c-10.02,11.445-23.215,20.084-39.234,20.084c-11.514,0-19.493-5.841-23.561-14.305
	c-8.261,7.567-17.488,14.305-24.942,14.305c-14.062,0-22.355-6.13-22.355-19.651c0-2.885,8.475-44.89,8.475-46.333
	c0-6.49-3.426-10.637-8.293-10.637c-4.327,0-7.572,1.262-11.178,3.786l-15.504,72.834h-25.96l3.526-16.535
	c-8.831,8.42-19.143,16.535-27.323,16.535c-13.883,0-22.355-6.13-22.355-19.651c0-0.599-23.768,19.651-40.565,19.651
	c-12.047,0-20.239-6.384-24.113-15.489c-5.248,6.935-14.907,11.612-25.471,15.489l-2.909,13.697h356.53l3.259,17.926H218.103
	c-7.084,10.94-17.291,13.448-25.83,13.448c-9.649,0-17.906-4.444-19.786-13.448H8.265L5.006,209.26h172.609
	c5.335-5.572,14.019-9.19,23.852-12.795l1.803-8.113c-5.408,4.868-12.439,8.654-20.732,8.654c-17.307,0-22.355-14.603-22.355-25.24
	c0-10.193,1.609-23.138,5.907-34.872c-4.05,2.389-8.552,4.356-13.302,5.666c-3.425,36.237-23.076,54.084-41.104,54.084
	c-19.29,0-27.583-8.113-27.583-29.566c0-44.349,22.535-63.46,47.414-63.46c17.127,0,21.453,13.341,21.814,26.502
	c1.082,1.081,13.818-0.658,17.217-3.05c6.852-12.298,17.684-21.469,34.165-21.469c6.492,0,11.719,3.606,14.243,8.474l1.983-8.654
	h25.96l-16.946,79.865c7.847-4.046,20.737-17.64,20.737-18.389c0-22.896,9.735-63.099,42.546-63.099
	c14.783,0,23.076,6.129,23.076,18.749c0,21.995-23.617,34.614-40.743,36.778c-0.361,2.884-0.541,5.588-0.541,7.752
	c0,11.899,7.752,15.504,14.783,15.504c8.834,0,30.655-23.797,30.655-23.797c3.003-15.314,7.862-35.796,9.909-46.152h-5.949
	l1.442-7.211h5.949l5.409-24.879l26.681-3.605c0,0-2.704,12.259-6.129,28.485h10.817l-1.443,7.211h-10.816
	c-12.44,56.97-12.26,58.773-12.26,59.673c0,4.147,1.803,6.851,9.016,6.851c4.963,0,10.95-4.782,16.551-9.644l20.585-96.543
	l26.683-3.605l-9.735,45.612c7.391-5.229,15.684-9.555,23.436-9.555c9.736,0,20.734,10.456,20.734,22.535
	c0,1.443-8.654,42.908-8.654,44.53c0,3.966,1.983,6.671,9.014,6.671c3.03,0,6.442-1.791,9.914-4.286
	c-0.584-2.546-0.894-5.219-0.894-7.973c0-22.896,9.735-63.099,42.546-63.099c14.783,0,23.076,6.129,23.076,18.749
	c0,21.995-23.617,34.614-40.743,36.778c-0.361,2.884-0.541,5.588-0.541,7.752c0,11.899,7.752,15.504,14.783,15.504
	c8.834,0,23.977-10.456,30.287-23.797h0.047l11.313-53.363h25.96l-1.983,9.014c6.49-5.048,13.703-9.014,21.273-9.014
	C594.857,105.421,599.726,110.108,599.726,116.959z M487.047,150.672c16.586-0.181,28.304-14.423,28.484-27.223
	c0-3.786-0.901-10.096-6.309-10.096C499.126,113.353,490.833,133.726,487.047,150.672z M277.01,150.672
	c16.586-0.181,28.304-14.423,28.484-27.223c0-3.786-0.901-10.096-6.309-10.096C289.09,113.353,280.797,133.726,277.01,150.672z
	 M131.876,136.25c0-5.228,3.064-10.817,7.933-12.62c-0.541-5.95-2.524-9.375-7.572-9.375c-16.947,0-24.157,36.778-24.157,51.201
	c0,10.817,5.048,13.702,12.079,13.702c10.997,0,17.126-17.307,19.289-34.795C134.22,144.362,131.876,140.576,131.876,136.25z
	 M199.665,205.118c-10.276,3.966-17.668,8.473-17.668,15.504c0,2.524,2.163,5.95,6.13,5.95
	C191.732,226.572,199.665,205.118,199.665,205.118z M216.973,123.449c-2.885-5.409-7.212-7.752-10.276-7.752
	c-17.489,0-24.338,37.138-24.338,52.642c0,8.654,5.228,11.358,13.16,11.358c3.606,0,7.392-2.705,10.817-6.31L216.973,123.449z"/>
</svg>
