<?xml version="1.0" encoding="utf-8"?>
<!-- Generator: Adobe Illustrator 19.0.0, SVG Export Plug-In . SVG Version: 6.00 Build 0)  -->
<svg version="1.1" id="Layer_1" xmlns="http://www.w3.org/2000/svg" xmlns:xlink="http://www.w3.org/1999/xlink" x="0px" y="0px"
	 width="600px" height="600px" viewBox="0 0 600 600" enable-background="new 0 0 600 600" xml:space="preserve">
<path id="color_x5F_3_1_" fill="#FDB515" d="M471.575,227.342h-342.72l-0.319,44.472h-26.555l1.421,9.765h25.065l-0.98,103.974
	l0.231,0.35l-0.001,0.173h0.115l22.863,34.707h-27.041l1.421,9.765h39.566v-44.472h270.722v44.472h39.565l1.421-9.765h-27.04
	l22.268-35.849V281.579h25.024l1.421-9.765h-26.444V227.342z M461.81,376.312H137.551l0.999-139.205h323.26V376.312z
	 M74.796,363.597l15.239,11.368l-11.367,15.237l-15.239-11.368l-11.367,15.238l-15.237-11.367l11.367-15.238L32.956,356.1
	l11.367-15.237l15.237,11.367l11.367-15.238l15.237,11.367L74.796,363.597z M551.807,367.467l11.367,15.238l-15.237,11.367
	l-11.368-15.238l-15.239,11.368l-11.367-15.237l15.239-11.368l-11.367-15.238l15.237-11.367l11.367,15.238l15.237-11.367
	l11.367,15.237L551.807,367.467z"/>
<path id="color_x5F_2_1_" fill="#05BDCD" d="M188.992,128.332c-5.092-11.72-21.238-17.649-32.969-18.465
	c-7.406-0.515-18.388-0.192-24.996,3.675c-2.655,1.554-5.126,4.706-4.538,8.08c0.572,3.287,2.461,3.169,5.352,3.983
	c-4.894,6.579-12.592,41.859-13.926,51.088c-0.674,4.662-4.519,16.48,0.745,19.829c5.364,3.413,13.426-2.669,15.394-7.564
	c1.29-3.21,0.656-15.064,1.408-17.053c1.27-3.356,1.633-3.097,5.363-4.398c7.254-2.531,14.546-5.089,21.578-8.199
	C175.828,153.37,187.279,143.623,188.992,128.332z M150.922,151.985c-3.389,1.075-13.038,3.207-11.911-2.99
	c0.723-3.991,9.433-20.737,5.734-25.455c5.485-1.161,25.59,3.895,25.95,12.713C171.054,145.071,157.324,149.954,150.922,151.985z
	 M190.707,174.886c0.846-7.287,2.162-15.087,1.063-22.383c-1.016-6.738-2.265-15.332,6.702-17.427
	c7.464-1.743,10.356,6.544,8.988,12.493c6.32-1.811,9.939-9.162,16.522-10.194c4.313-0.676,12.717,3.141,8.028,8.039
	c-4.859,5.49-11.426,9.133-17,13.798c-5.242,4.388-7.832,9.528-9.961,15.932c-1.255,3.775,0.963,5.895,1.496,9.432
	c0.556,3.692-1.065,7.414-3.378,10.206c-3.725,4.497-12.379,7.543-14.999,0.174C186.41,190.017,190.098,180.131,190.707,174.886z
	 M256.935,153.937c-8.605,0.145-16.764,2.64-23.324,8.356c-5.93,5.167-11.077,14.376-7.585,22.268
	c4.546,10.273,14.994,6.626,23.272,10.424c4.43,2.032,5.942,10.389,11.522,2.282c4.877-7.086,5.419-17.081,8.385-25.001
	c3.44-9.183,9.264-19.523,6.347-29.621c-4.576-15.142-42.132-9.757-37.284,5.447c2.528,7.926,15.831-1.565,21.716-1.56
	c3.841,0.003,5.565,0.757,4.36,4.832C263.166,155.347,260.64,153.874,256.935,153.937z M253.089,183.205
	c-3.148,1.678-17.967-1.32-16.845-6.298c2.001-9.999,14.983-10.033,22.864-11.666C259.957,169.454,256.992,181.125,253.089,183.205z
	 M289.809,145.068c5.529-5.822,12.992-11.484,20.213-15.094c4.548-2.273,20.316-5.609,16.138,4.598
	c-3.022,7.385-12.448,8.9-18.671,12.34c-6.12,3.383-11.986,9.243-13.844,16.135c-2.629,9.754,1.182,15.321,10.27,18.164
	c8.396,2.626,12.214-6.496,19.948-6.921c6.403-0.536,1.911,7.946,0.174,10.277c-2.668,3.581-6.238,6.343-10.451,7.858
	c-8.289,2.981-20.577,1.501-27.717-3.742C271.194,177.908,279.661,155.753,289.809,145.068z M334.633,153.876
	c6.034-1.581,11.428-1.961,14.022-8.332c1.554-3.816,2.147-8.099,3.397-12.052c2.369-7.492,3.796-18.381,14.196-16.748
	c9.058,1.422,5.106,7.17,2.236,12.796c-3.397,6.658-5.605,13.896-6.996,21.224c1.894-0.177,10.618-2.19,11.739-0.527
	c1.524-2.188,7.529,0.542,6.9,4.014c-1.239,6.785-9.528,7.589-15.074,7.809c-1.63,0.064-8.207,0.37-8.915,4.052
	c-0.42,2.187-2.405,35.207-5.844,48.708c-1.291,5.067-8.198,9.287-11.354,2.866c-1.792-3.644-0.257-9.769,0.115-13.528
	c0.824-8.33,4.501-36.044,3.502-41.229c-3.836,2.425-13.651,6.934-16.979,1.105C322.245,158.199,330.458,154.97,334.633,153.876z
	 M381.017,171.553c1.256-5.511,2.158-11.21,3.789-16.618c1.237-4.102,2.906-8.992,6.924-11.132
	c3.681-1.96,12.831-0.927,11.748,5.057c-0.38,2.079-2.82,4.021-3.755,5.962c-1.314,2.728-5.561,16.275-5.918,20.569
	c-0.329,3.963,0.733,11.134-3.166,13.499c-3.327,2.018-9.598,1.383-11.155-2.323C377.788,182.528,380.087,175.638,381.017,171.553z
	 M401.48,120.065c12.822-0.779,6.58,15.953-2.786,15.953C386.879,136.018,391.79,120.653,401.48,120.065z M448.545,184.567
	c-2.668,3.581-6.238,6.343-10.451,7.858c-8.289,2.981-20.578,1.501-27.718-3.742c-14.675-10.775-6.208-32.931,3.94-43.615
	c5.53-5.822,12.992-11.484,20.213-15.094c4.547-2.273,20.316-5.61,16.138,4.597c-3.022,7.385-12.449,8.9-18.671,12.34
	c-6.12,3.383-11.988,9.244-13.845,16.136c-2.629,9.755,1.185,15.321,10.273,18.164c8.394,2.626,12.214-6.497,19.946-6.922
	C454.774,173.754,450.282,182.236,448.545,184.567z M496.447,143.709c-6.836-8.162-18.785-9.229-27.598-3.61
	c-8.893,5.668-11.995,15.218-12.677,25.213c-0.557,8.162,0.111,17.607,5.976,23.917c6.262,6.736,15.534,6.438,23.883,4.651
	c4.535-0.971,9.457-4.22,8.966-9.647c-0.56-6.193-3.99-3.291-7.766-1.868c-3.555,1.339-7.452,2.863-11.179,1.324
	c-4.525-1.868-3.911-3.591-1.195-5.985c5.744-5.062,14.01-7.288,20.232-11.744C502.924,160.35,502.604,151.059,496.447,143.709z
	 M485.8,158.02c-2.496,3.717-6.496,5.6-10.794,6.403c-5.601,1.046-5.941-1.17-5.016-6.263c0.938-5.173,4.054-8.99,9.627-9.069
	C485.418,149.009,489.379,152.69,485.8,158.02z M188.331,403.739c-4.729-1.2-13.951-2.157-15.003,4.484
	c-0.417,2.634,1.568,8.051,1.432,10.425c-0.456,7.95-2.154,29.481-3.356,31.277c-1.678,2.506-4.18,1.882-4.143,5.515
	c0.088,8.512,12.41,6.728,17.246,4.883c14.638-5.585,31.113-24.306,21.866-40.522C202.465,412.983,196.231,405.744,188.331,403.739z
	 M198.107,433.286c-0.984,6.278-8.346,17.224-15.349,17.117c0.12-11.182,2.076-22.653,3.675-33.703
	C193.157,418.051,199.184,426.412,198.107,433.286z M211.949,462.679c-1.859-3.714,0.716-10.588,1.122-14.566
	c0.558-5.461,1.407-11.411,0.845-16.882c-0.576-5.614-3.233-11.968,3.413-15.255c5.932-2.935,10.485,2.702,9.792,8.476
	c4.326-2.065,4.326-4.362,9.211-6.086c6.721-2.372,12.783,2.137,9.132,6.042c-9.528,2.656-18.226,3.842-19.794,22.57
	c-0.254,3.038,1.143,4.633,1.406,7.546c0.265,2.943-1.235,5.815-3.08,7.937C220.958,465.954,214.577,467.929,211.949,462.679z
	 M256.666,424.151c5.489,2.755,1.803,5.936,0.171,9.536c-1.421,3.137-1.956,6.904-2.964,10.208
	c-1.919,6.291,1.483,17.671-8.443,16.912c-9.268-0.708-3.788-14.833-2.741-20.416C243.913,433.871,246.309,419.413,256.666,424.151z
	 M255.058,419.723c-10.31,0-6.267-14.125,2.701-13.699C267.694,406.496,262.621,419.723,255.058,419.723z M279.481,450.321
	c0.406-3.922,3.505-11.396,1.005-11.781c-2.5-0.385-6.992,16.903-13.324,20.124c-9.629,4.898-6.516-10.225-5.776-14.364
	c1.014-5.67,0.019-13.891,3.512-18.905c1.847-2.651,6.554-4.149,9.149-1.465c2.194,2.269,1.428,3.53,1.428,3.53
	s6.741-5.192,13.431-2.902c2.462,5.381,2.991,11.412,2.642,17.26c-0.163,2.731-0.503,5.46-0.788,8.18
	c-0.321,3.056,0.22,7.815-1.215,10.565c-1.95,3.736-9.594,4.742-10.878,0.215C277.871,457.977,279.186,453.174,279.481,450.321z
	 M307.873,449.182c-1.155,4.686,1.118,11.6-2.493,15.39c-1.629,1.709-5.333,2.674-7.495,1.471c-2.199-1.224-2.224-3.844-2.561-6.177
	c-1.836-12.714,2.211-24.569,4.129-36.935c0.919-5.924-0.056-12.228,1.934-17.974c1.405-4.057,6.607-9.246,11.464-6.393
	c3.483,2.045,0.794,9.14,0.201,12.133c-1.357,6.858-2.926,13.687-3.842,20.624c3.621,0.3,8.528-6.13,12.859-6.725
	c2.481-0.341,7.388,0.343,7.934,3.469c0.88,5.041-11.342,8.819-14.312,11.002c5.907,5.202,11.323,10.981,16.647,16.767
	c4.09,5.683-6.917,9.819-10.988,6.642C316.543,458.724,312.317,453.389,307.873,449.182z M350.096,419.723
	c-10.31,0-6.267-14.125,2.701-13.699C362.733,406.496,357.658,419.723,350.096,419.723z M351.704,424.151
	c5.492,2.756,1.802,5.936,0.172,9.537c-1.398,3.089-1.992,6.949-2.963,10.206c-1.766,5.927,1.198,19.266-9.403,16.796
	c-8.015-1.868-2.616-16.129-1.549-21.639C339.211,432.58,341.928,419.673,351.704,424.151z M374.519,450.324
	c0.406-3.923,4.936-11.399,1.005-11.785c-3.931-0.385-6.992,16.903-13.324,20.124c-9.629,4.899-6.516-10.225-5.776-14.364
	c1.013-5.669,0.018-13.891,3.512-18.905c1.847-2.651,6.553-4.149,9.148-1.465c2.196,2.272,1.673,4.321,1.673,4.321
	s6.496-5.982,13.186-3.692c2.462,5.381,2.992,11.411,2.643,17.258c-0.163,2.731-0.502,5.46-0.788,8.18
	c-0.321,3.056,0.219,7.816-1.216,10.566c-1.949,3.736-9.595,4.743-10.877,0.215C372.911,457.976,374.224,453.177,374.519,450.324z
	 M425.494,463.701c-2.671,0.09-5.332,0.203-7.995,0.31c0.158-2.838,0.168-5.647,0.297-8.178c0.354-6.968,0.684-13.942,2.526-20.711
	c1.092-4.014,2.925-7.523,4.587-11.288c1.128-2.555,2.472-4.53-0.982-6.407c-10.166-5.867-27.384,1.523-32.223,11.694
	c-2.372,4.985-2.181,11.422,1.518,15.745c3.987,4.66,10.002,3.525,14.972,1.072c-0.691,1.799-0.202,10.949-0.912,18.524
	c-61.561,2.966-121.405,10.318-182.01,20.409c-8.546,1.423-4.929,11.6,3.612,10.178c52.021-8.662,104.226-17.763,157.037-22.264
	c0.647,4.24,5.574,8.539,9.039,9.882c6.537,2.534,15.301,0.9,19.21-5.271c1.251-1.975,2.028-4.258,2.527-6.671
	c3.37-0.16,6.74-0.314,10.116-0.427C435.524,470.005,434.252,463.407,425.494,463.701z M402.637,439.613
	c-2.895,0-1.322-8.177-0.67-9.379c0.994-1.833,7.357-7.497,9.523-5.498C414.311,427.341,405.906,439.868,402.637,439.613z"/>
<path id="color_x5F_1_1_" fill="#0071A1" d="M198.505,283.661c0,3.94,2.981,10.945,8.947,21.013
	c5.964,10.07,8.947,18.523,8.947,25.364c0,9.905-3.53,17.976-10.589,24.215c-7.005,6.184-15.514,9.275-25.528,9.275
	c-2.955,0-6.185-0.383-9.686-1.149l4.186-24.953c0.985,0.384,13.522,1.608,13.872-8.208c0.111-3.117-3.01-9.822-9.029-20.11
	c-6.021-10.288-9.029-18.879-9.029-25.775c0-10.067,3.447-18.304,10.343-24.706c6.949-6.456,15.514-9.686,25.692-9.686
	c3.448,0,6.813,0.411,10.096,1.232l-4.514,24.953C206.145,272.797,198.505,278.382,198.505,283.661z M279.439,250.335
	l22.408,112.043h-30.863l-1.559-14.036h-13.708l-1.559,14.036h-30.781l22.409-112.043H279.439z M267.208,327.329l-4-36.567
	c-0.078-0.714-1.116-0.714-1.194,0l-3.999,36.567H267.208z M310.22,362.379h27.99v-42.027l27.99-27.99h-27.99v-14.036h27.99v-27.99
	h-55.98V362.379z M373.423,362.379h55.98v-27.99h-27.99v-14.036l27.99-27.99h-27.99v-14.036h27.99v-27.99h-55.98V362.379z
	 M121.371,447.495c0.807,5.55-1.913,10.999-6.817,13.719c-6.628,3.676-18.356,8.193-38.499,11.124
	c-19.528,2.841-31.419,1.928-38.419,0.314c-5.348-1.233-9.34-5.702-10.13-11.133L0.25,274.167c-0.615-4.224-0.093-8.536,1.51-12.492
	l12.473-30.77c1.791-4.418,2.546-9.187,2.208-13.942l-5.532-77.875c-1.898-0.039-3.547-1.432-3.829-3.373l-0.285-1.957
	c-0.314-2.161,1.183-4.168,3.344-4.482h0l-0.712-4.892l0,0c-2.161,0.314-4.168-1.183-4.482-3.344l-0.285-1.957
	c-0.314-2.161,1.183-4.168,3.344-4.482l0.098-0.014c-0.008-3.383,2.441-6.349,5.886-6.85l19.587-2.85
	c3.445-0.501,6.638,1.644,7.594,4.889l0.097-0.014c2.161-0.314,4.168,1.183,4.483,3.344l0.285,1.956
	c0.314,2.161-1.183,4.168-3.344,4.483l0.712,4.891c2.161-0.314,4.168,1.183,4.482,3.344l0.285,1.957
	c0.282,1.941-0.901,3.746-2.709,4.324l16.886,76.223c1.031,4.654,3.114,9.01,6.089,12.735l20.724,25.941
	c2.664,3.335,4.393,7.32,5.007,11.544L121.371,447.495z M30.267,116.204c-7.105,0.129-10.73,0.965-17.927,0.385
	c-3.808-0.307-2.939,6.266,0.854,5.87C27.568,120.871,37.36,116.075,30.267,116.204z M21.916,141.819
	c-4.754-0.042,2.742,47.23,4.31,79.144c0.199,4.038,7.749,2.696,7.324-1.304C30.537,191.306,26.172,141.856,21.916,141.819z
	 M20.753,265.704c3.277-8.544,6.555-17.087,9.832-25.631c1.839-4.794-5.55-7.785-7.389-2.99c-2.681,6.99-7.257,19.943-10.096,28.257
	C15.64,265.535,18.194,265.635,20.753,265.704z M103.583,403.897l-9.714-66.77c-3.184-21.882-18.823-37.722-41.515-34.42
	c-22.692,3.301-33.17,22.94-29.986,44.822l9.714,66.77c0,0,7.778,7.11,36.925,2.87C98.154,412.929,103.583,403.897,103.583,403.897z
	 M599.75,274.167l-27.256,187.352c-0.79,5.431-4.783,9.9-10.13,11.133c-7,1.614-18.89,2.527-38.419-0.314
	c-20.143-2.93-31.871-7.448-38.499-11.124c-4.904-2.72-7.624-8.169-6.817-13.719l27.203-186.991
	c0.615-4.224,2.343-8.209,5.007-11.544l20.723-25.941c2.975-3.724,5.058-8.081,6.09-12.735l16.886-76.223
	c-1.808-0.578-2.992-2.383-2.709-4.324l0.285-1.957c0.314-2.161,2.321-3.658,4.483-3.344l0.711-4.891
	c-2.161-0.314-3.658-2.321-3.344-4.483l0.285-1.956c0.314-2.161,2.321-3.659,4.483-3.344l0.097,0.014
	c0.956-3.245,4.149-5.39,7.594-4.889l19.587,2.85c3.445,0.501,5.894,3.468,5.886,6.85l0.098,0.014
	c2.161,0.314,3.658,2.321,3.344,4.482l-0.285,1.957c-0.314,2.161-2.321,3.658-4.482,3.344h0l-0.711,4.892
	c2.161,0.314,3.658,2.321,3.344,4.482l-0.285,1.957c-0.282,1.941-1.931,3.334-3.829,3.373l-5.532,77.875
	c-0.338,4.755,0.418,9.524,2.209,13.942l12.473,30.77C599.843,265.631,600.364,269.943,599.75,274.167z M586.806,122.459
	c3.793,0.396,4.662-6.177,0.854-5.87c-7.197,0.581-10.822-0.255-17.927-0.385C562.64,116.075,572.432,120.871,586.806,122.459z
	 M566.45,219.658c-0.425,4,7.125,5.342,7.324,1.304c1.569-31.914,9.064-79.186,4.311-79.144
	C573.828,141.856,569.463,191.306,566.45,219.658z M547.645,302.707c-22.692-3.301-38.331,12.538-41.515,34.42l-9.714,66.77
	c0,0,5.429,9.032,34.576,13.272c29.147,4.24,36.925-2.87,36.925-2.87l9.714-66.77C580.815,325.647,570.337,306.008,547.645,302.707z
	 M586.9,265.34c-2.839-8.313-7.414-21.267-10.096-28.257c-1.839-4.795-9.228-1.804-7.389,2.99
	c3.277,8.544,6.555,17.087,9.832,25.631C581.806,265.635,584.36,265.535,586.9,265.34z"/>
</svg>
